<?xml version="1.0" standalone="no"?><!DOCTYPE svg PUBLIC "-//W3C//DTD SVG 1.1//EN" "http://www.w3.org/Graphics/SVG/1.1/DTD/svg11.dtd"><svg t="1697510745021" class="icon" viewBox="0 0 1024 1024" version="1.1" xmlns="http://www.w3.org/2000/svg" p-id="4732" xmlns:xlink="http://www.w3.org/1999/xlink" width="200" height="200"><path d="M258.090667 800.085333a386.048 386.048 0 0 1-102.101334-143.872 42.666667 42.666667 0 1 1 79.104-32.085333 297.258667 297.258667 0 0 0 43.648 74.410667c10.837333 13.525333 22.784 26.069333 35.797334 37.546666a42.666667 42.666667 0 0 1-56.448 64z m118.613333-416.128A25.002667 25.002667 0 0 1 358.954667 426.666667H153.002667A25.002667 25.002667 0 0 1 128 401.664V195.669333a25.002667 25.002667 0 0 1 42.666667-17.664l66.133333 66.133334a384 384 0 1 1 179.114667 639.744 42.666667 42.666667 0 0 1 21.333333-82.645334A298.666667 298.666667 0 1 0 297.173333 304.469333l79.488 79.488z" fill="#31303D" p-id="4733"></path></svg>