<?xml version="1.0" standalone="no"?><!DOCTYPE svg PUBLIC "-//W3C//DTD SVG 1.1//EN" "http://www.w3.org/Graphics/SVG/1.1/DTD/svg11.dtd"><svg t="1697605526139" class="icon" viewBox="0 0 1024 1024" version="1.1" xmlns="http://www.w3.org/2000/svg" p-id="29219" xmlns:xlink="http://www.w3.org/1999/xlink" width="200" height="200"><path d="M512 85.333333c235.648 0 426.666667 191.061333 426.666667 426.666667s-191.018667 426.666667-426.666667 426.666667S85.333333 747.605333 85.333333 512 276.352 85.333333 512 85.333333z m0 71.125334c-196.053333 0-355.541333 159.488-355.541333 355.541333 0 196.053333 159.488 355.541333 355.541333 355.541333 196.053333 0 355.541333-159.488 355.541333-355.541333 0-196.053333-159.488-355.541333-355.541333-355.541333zM480 256a32 32 0 0 1 31.701333 27.648L512 288V512h138.666667a32 32 0 0 1 4.352 63.701333l-4.352 0.298667h-170.666667a32 32 0 0 1-31.701333-27.648l-0.298667-4.352v-256a32 32 0 0 1 32-32z" fill="#2c2c2c" p-id="29220"></path></svg>