<?xml version="1.0" standalone="no"?><!DOCTYPE svg PUBLIC "-//W3C//DTD SVG 1.1//EN" "http://www.w3.org/Graphics/SVG/1.1/DTD/svg11.dtd"><svg t="1697605194972" class="icon" viewBox="0 0 1024 1024" version="1.1" xmlns="http://www.w3.org/2000/svg" p-id="13613" xmlns:xlink="http://www.w3.org/1999/xlink" width="200" height="200"><path d="M960.64 256c0-52.928-43.072-96-96-96h-185.6c-0.8 0-1.472 0.416-2.272 0.448a31.264 31.264 0 0 0-10.08 2.048c-0.448 0.192-0.8 0.576-1.248 0.8a31.552 31.552 0 0 0-8.928 5.696c-16.576 16.032-25.088 47.904-34.528 87.936-1.312 5.536-2.4 10.336-3.52 14.496-1.44 5.76-4.064 16.48-27.264 16.48L576 288H160c-52.928 0-96 43.072-95.904 98.464L96 800c0 52.928 43.072 96 96 96h640c52.928 0 96-43.072 95.904-93.536M864 800a32 32 0 0 1-32 32H192c-17.632 0-32-14.336-32.096-34.464L128 384c0-17.632 14.368-32 32-32h416l15.2-0.096c45.92 0 79.328-24.352 89.216-64.512 1.056-4 2.368-9.472 3.872-15.808 2.432-10.368 8-33.952 12.768-47.584H864.64c17.664 0 32 14.368 32 32v2.272l-0.064 0.352L864 800zM128 224h416a32 32 0 1 0 0-64H128a32 32 0 0 0 0 64z" fill="#2c2c2c" p-id="13614"></path></svg>