<?xml version="1.0" standalone="no"?><!DOCTYPE svg PUBLIC "-//W3C//DTD SVG 1.1//EN" "http://www.w3.org/Graphics/SVG/1.1/DTD/svg11.dtd"><svg t="1697605417328" class="icon" viewBox="0 0 1024 1024" version="1.1" xmlns="http://www.w3.org/2000/svg" p-id="20986" xmlns:xlink="http://www.w3.org/1999/xlink" width="200" height="200"><path d="M350.165333 170.666667c19.626667 0 38.741333 6.016 54.784 17.152l6.656 5.12L512.938667 277.333333h329.728a96 96 0 0 1 95.104 82.688l0.682666 6.741334 0.213334 6.570666v384a96 96 0 0 1-89.429334 95.786667L842.666667 853.333333H181.333333a96 96 0 0 1-95.786666-89.429333L85.333333 757.333333V266.666667a96 96 0 0 1 89.429334-95.786667L181.333333 170.666667h168.832z m61.44 255.104a96 96 0 0 1-53.077333 21.845333l-8.362667 0.384-200.832-0.042667v309.376c0 16.213333 12.032 29.610667 27.648 31.701334l4.352 0.298666h661.333334a32 32 0 0 0 31.701333-27.648l0.298667-4.352v-384a32 32 0 0 0-27.648-31.701333L842.666667 341.333333h-329.770667L411.605333 425.770667zM350.165333 234.666667H181.333333a32 32 0 0 0-31.701333 27.648L149.333333 266.666667v117.290666L350.165333 384a32 32 0 0 0 16.853334-4.821333l3.626666-2.56 80.682667-67.328-80.64-67.2a32 32 0 0 0-16.085333-7.125334L350.165333 234.666667z" fill="#2c2c2c" p-id="20987"></path></svg>