<?xml version="1.0" standalone="no"?><!DOCTYPE svg PUBLIC "-//W3C//DTD SVG 1.1//EN" "http://www.w3.org/Graphics/SVG/1.1/DTD/svg11.dtd"><svg t="1697605169125" class="icon" viewBox="0 0 1024 1024" version="1.1" xmlns="http://www.w3.org/2000/svg" p-id="8691" xmlns:xlink="http://www.w3.org/1999/xlink" width="200" height="200"><path d="M512 958.016C266.08 958.016 65.984 757.952 65.984 512 65.984 266.08 266.08 65.984 512 65.984S958.016 266.048 958.016 512 757.952 958.016 512 958.016z m0-828.032c-210.656 0-382.016 171.36-382.016 382.016S301.344 894.016 512 894.016c210.624 0 382.016-171.36 382.016-382.016S722.624 129.984 512 129.984zM464 304a48 48 0 0 1 96 0 48 48 0 0 1-96 0z m48 464a32 32 0 0 1-32-32V448a32 32 0 0 1 64 0v288a32 32 0 0 1-32 32z" fill="#2c2c2c" p-id="8692"></path></svg>