<?xml version="1.0" standalone="no"?><!DOCTYPE svg PUBLIC "-//W3C//DTD SVG 1.1//EN" "http://www.w3.org/Graphics/SVG/1.1/DTD/svg11.dtd"><svg t="1697507427987" class="icon" viewBox="0 0 1024 1024" version="1.1" xmlns="http://www.w3.org/2000/svg" p-id="3548" xmlns:xlink="http://www.w3.org/1999/xlink" width="200" height="200"><path d="M573.861877 610.556947a57.599712 57.599712 0 0 1-64.426344 49.493086h-33.706498l16.213252-93.012868h31.573175c37.119814 0 55.893054 11.093278 50.346415 43.519782z m-35.413156-104.53281H426.662613l-58.026376 334.078329h77.22628l18.77324-119.039405h37.546479a136.959315 136.959315 0 0 0 146.345935-110.506114c14.506594-79.359603-39.679802-104.532811-110.506114-104.53281z m285.011908 445.864437H200.103746V72.106306H511.99552v239.785468A72.959635 72.959635 0 0 0 584.101826 383.99808h238.932139zM582.821833 110.506114l200.958995 201.812324h-200.958995z m291.83854 191.145711L597.328427 21.333227a76.799616 76.799616 0 0 0-14.506594-11.519943l-4.266646-2.133322h-2.986652A71.679642 71.679642 0 0 0 546.128683 0H200.957075A72.959635 72.959635 0 0 0 127.99744 72.106306v879.782268A72.959635 72.959635 0 0 0 200.957075 1023.99488h622.930219A71.252977 71.252977 0 0 0 895.9936 951.888574V352.424905a71.252977 71.252977 0 0 0-21.333227-50.77308z" fill="#ffffff" p-id="3549"></path></svg>