<?xml version="1.0" standalone="no"?><!DOCTYPE svg PUBLIC "-//W3C//DTD SVG 1.1//EN" "http://www.w3.org/Graphics/SVG/1.1/DTD/svg11.dtd"><svg t="1697511408036" class="icon" viewBox="0 0 1024 1024" version="1.1" xmlns="http://www.w3.org/2000/svg" p-id="43042" xmlns:xlink="http://www.w3.org/1999/xlink" width="200" height="200"><path d="M512 433.6c17.9 0 32.4-14.5 32.4-32.4V114.8c0-17.9-14.5-32.4-32.4-32.4s-32.4 14.5-32.4 32.4v286.4c0 17.9 14.5 32.4 32.4 32.4zM794.9 938.6c16.3-7.4 23.4-26.6 16-42.9L692.2 635.1c-7.4-16.3-26.6-23.4-42.9-16-16.3 7.4-23.4 26.6-16 42.9L752 922.6c7.5 16.2 26.6 23.4 42.9 16zM229.1 938.6c-16.3-7.4-23.4-26.6-16-42.9l118.7-260.6c7.4-16.3 26.6-23.4 42.9-16 16.3 7.4 23.4 26.6 16 42.9L271.9 922.6c-7.4 16.2-26.5 23.4-42.8 16z" fill="#37474F" p-id="43043"></path><path d="M882.2 781.9H141.8c-10.3 0-18.6-8.3-18.6-18.6V214h777.6v549.3c0 10.3-8.3 18.6-18.6 18.6z" fill="#ECEFF1" p-id="43044"></path><path d="M676.5 555l136.8-138.2 87.5 117.1V214H123.2v549.3c0 10.3 8.3 18.6 18.6 18.6h163.7L202.3 643.8 676.5 555z" fill="#ECEFF1" p-id="43045"></path><path d="M900.8 763.3V533.8l-87.5-117.1L676.5 555l-474.3 88.8L305.5 782h576.6c10.4-0.1 18.7-8.4 18.7-18.7z" fill="#DADEE0" p-id="43046"></path><path d="M212.5 546.2s51.2 8.4 86.9-56.9c0 0 25.4-50.7 60.7-56.7 0 0 45.4-11.4 79.5 56.8 0 0 16 33.4 41.6 33.3 0 0 36.6 2.5 72-78.7 0 0 21.8-56.8 68.1-56.8 0 0 43.3-2.1 79.5 45.4 0 0 42.7 70.8 113.6 45.4v147.6H212.5v-79.4z" fill="#FFC107" p-id="43047"></path><path d="M212.5 545s78.6 39.3 150.5-23.1l46.3-46.3s54.9-59.3 130-16.4c0 0 18.6 9.7 43.6 28 0 0 48.5 37.6 125.6-5.9 0 0 51.7-29.3 88.4-66.6 6.4-6.5 17.5-2.1 17.5 7.1v203.9H212.5V545z" fill="#F44336" p-id="43048"></path><path d="M213.4 645.8h-1.8c-5.1 0-9.3-4.2-9.3-9.3v-308c0-5.1 4.2-9.3 9.3-9.3h1.8c5.1 0 9.3 4.2 9.3 9.3v308.1c0 5.1-4.2 9.2-9.3 9.2z" fill="#90A4AE" p-id="43049"></path><path d="M821.7 634.7v1.8c0 5.1-4.2 9.3-9.3 9.3H211.6c-5.1 0-9.3-4.2-9.3-9.3v-1.8c0-5.1 4.2-9.3 9.3-9.3h600.9c5.1 0 9.2 4.2 9.2 9.3zM941.9 785.3H82.1c-16.5 0-29.9-13.4-29.9-29.9s13.4-29.9 29.9-29.9h859.8c16.5 0 29.9 13.4 29.9 29.9s-13.4 29.9-29.9 29.9zM941.9 225.3H82.1c-16.5 0-29.9-13.4-29.9-29.9s13.4-29.9 29.9-29.9h859.8c16.5 0 29.9 13.4 29.9 29.9s-13.4 29.9-29.9 29.9z" fill="#90A4AE" p-id="43050"></path></svg>