<?xml version="1.0" standalone="no"?><!DOCTYPE svg PUBLIC "-//W3C//DTD SVG 1.1//EN" "http://www.w3.org/Graphics/SVG/1.1/DTD/svg11.dtd"><svg t="1697510681060" class="icon" viewBox="0 0 1024 1024" version="1.1" xmlns="http://www.w3.org/2000/svg" p-id="2027" xmlns:xlink="http://www.w3.org/1999/xlink" width="200" height="200"><path d="M810.666667 597.333333v128a85.333333 85.333333 0 0 1-85.333334 85.333334h-128a42.666667 42.666667 0 0 1 0-85.333334h102.4a25.6 25.6 0 0 0 25.6-25.6V597.333333a42.666667 42.666667 0 0 1 85.333334 0z m-42.666667-85.333333a42.666667 42.666667 0 0 1-42.666667-42.666667V324.266667a25.6 25.6 0 0 0-25.6-25.6H324.266667a25.6 25.6 0 0 0-25.6 25.6v375.466666a25.6 25.6 0 0 0 25.6 25.6H469.333333a42.666667 42.666667 0 0 1 0 85.333334H298.666667a85.333333 85.333333 0 0 1-85.333334-85.333334V298.666667a85.333333 85.333333 0 0 1 85.333334-85.333334h426.666666a85.333333 85.333333 0 0 1 85.333334 85.333334v170.666666a42.666667 42.666667 0 0 1-42.666667 42.666667z" fill="#2c2c2c" p-id="2028"></path></svg>