<?xml version="1.0" standalone="no"?><!DOCTYPE svg PUBLIC "-//W3C//DTD SVG 1.1//EN" "http://www.w3.org/Graphics/SVG/1.1/DTD/svg11.dtd"><svg t="1697560917380" class="icon" viewBox="0 0 1024 1024" version="1.1" xmlns="http://www.w3.org/2000/svg" p-id="16955" xmlns:xlink="http://www.w3.org/1999/xlink" width="200" height="200"><path d="M512 160c118.613333 0 221.781333 58.709333 285.098667 149.12l-93.013334-0.298667a32 32 0 0 0-0.170666 64l147.242666 0.426667a31.872 31.872 0 0 0 4.224 0l19.2 0.085333A32 32 0 0 0 906.666667 341.333333V170.666667a32 32 0 0 0-64 0v92.245333C767.573333 161.792 648.533333 96 512 96c-229.76 0-416 186.24-416 416s186.24 416 416 416c163.626667 0 302.08-94.421333 370.005333-231.082667a32 32 0 0 0-57.344-28.501333C766.933333 784.64 649.898667 864 512 864a352 352 0 1 1 0-704z" fill="#2c2c2c" p-id="16956"></path><path d="M544 341.333333v153.002667c0 2.816 1.109333 5.546667 3.114667 7.552l72.832 72.832a32 32 0 0 1-45.226667 45.226667l-72.832-72.832a74.666667 74.666667 0 0 1-21.888-52.778667V341.333333a32 32 0 1 1 64 0z" fill="#2c2c2c" p-id="16957"></path></svg>